<svg aria-hidden="true" style="position: absolute; width: 0; height: 0; overflow: hidden;" version="1.1" xmlns="http://www.w3.org/2000/svg" xmlns:xlink="http://www.w3.org/1999/xlink">
<defs>
<symbol id="icon-IMAGE" viewBox="0 0 100 32">
<path fill="#fff" style="fill: var(--color1, #fff)" d="M42.724 18.481c0-3.792-2.232-6.648-5.688-6.648-1.536 0-2.832 0.648-3.768 1.896v-6.072h-3.336v17.232h3.072v-1.848c0.984 1.344 2.376 2.088 4.032 2.088 3.456 0 5.688-2.904 5.688-6.648zM39.292 18.481c0 2.4-1.368 3.672-3 3.672-1.656 0-3-1.296-3-3.72s1.392-3.648 3-3.648c1.632 0 3 1.248 3 3.696zM47.022 24.889v-17.232h-3.36v17.232h3.36zM56.446 24.889h2.712v-8.064c0-3.144-1.968-4.992-5.328-4.992-3.096 0-5.232 1.92-5.424 4.872h3c0.12-1.44 0.984-2.28 2.424-2.28 1.392 0 2.208 0.84 2.208 2.28v0.768c-0.792-0.096-1.416-0.144-2.136-0.144-3.744 0-5.76 1.344-5.76 3.84 0 2.4 1.776 3.96 4.44 3.96 1.752 0 3.024-0.624 3.864-1.824v1.584zM51.286 21.073c0-1.152 0.936-1.752 2.832-1.752 0.576 0 1.128 0.048 1.92 0.168v0.912c0 1.488-1.032 2.424-2.736 2.424-1.248 0-2.016-0.672-2.016-1.752zM64.168 17.905c0-2.064 1.128-3.12 2.448-3.12 1.512 0 2.256 1.056 2.256 2.952v7.152h3.312v-8.28c0-3.096-1.776-4.776-4.344-4.776-1.68 0-3 0.792-3.936 2.064v-1.824h-3.072v12.816h3.336v-6.984zM77.195 24.889v-5.952l4.896 5.952h4.248l-5.928-6.672 5.304-6.144h-3.84l-4.68 5.424v-9.84h-3.336v17.232h3.336zM91.541 25.129c3.72 0 6.504-2.928 6.504-6.648 0-3.744-2.784-6.648-6.504-6.648s-6.504 2.904-6.504 6.648c0 3.72 2.784 6.648 6.504 6.648zM91.541 22.177c-1.656 0-3.072-1.32-3.072-3.696s1.416-3.672 3.072-3.672c1.656 0 3.072 1.296 3.072 3.672s-1.416 3.696-3.072 3.696z"></path>
<path fill="#ff7043" style="fill: var(--color2, #ff7043)" d="M19.556 5.333h-4.444v15.111h4.444v-15.111z"></path>
<path fill="#ff7043" style="fill: var(--color2, #ff7043)" d="M15.111 24.889v-4.444h-15.111v4.444h15.111z"></path>
<path fill="#ff7043" style="fill: var(--color2, #ff7043)" d="M19.556 9.778v-4.444h-15.111v4.444h15.111z"></path>
<path fill="#ff7043" style="fill: var(--color2, #ff7043)" d="M0 24.889h4.444v-15.111h-4.444v15.111z"></path>
</symbol>
<symbol id="vector" viewBox="0 0 28 32">
<path fill="#fff" style="fill: var(--color1, #fff)" d="M12.965 29.701c0.694 0.694 1.82 0.694 2.514 0l11.314-11.314c0.694-0.694 0.694-1.82 0-2.514s-1.82-0.694-2.514 0l-10.057 10.057-10.057-10.057c-0.694-0.694-1.82-0.694-2.514 0s-0.694 1.82 0 2.514l11.314 11.314zM12.444 0v28.444h3.556v-28.444h-3.556z"></path>
</symbol>
<symbol id="zvezd" viewBox="0 0 34 32">
<path d="M16.905 0l3.975 11.434 12.103 0.247-9.646 7.313 3.505 11.587-9.936-6.914-9.936 6.914 3.505-11.587-9.646-7.313 12.103-0.247 3.975-11.434z"></path>
</symbol>
<symbol id="rectangle" viewBox="0 0 32 32">
<path fill="#fff" style="fill: var(--color1, #fff)" opacity="0.4" d="M0 0h32v32h-32v-32z"></path>
</symbol>
<symbol id="icon-Vector-1" viewBox="0 0 39 32">
<path fill="#fff" style="fill: var(--color1, #fff)" d="M37.607 3.828c-0.243-0.26-0.631-0.325-0.945-0.158-0.381 0.175-0.777 0.317-1.182 0.425 0.601-0.749 1.055-1.604 1.339-2.521 0.078-0.318-0.049-0.65-0.319-0.836s-0.625-0.185-0.895 0.001c-1.255 0.694-2.595 1.224-3.986 1.575-1.494-1.486-3.517-2.319-5.624-2.316-1.681 0.037-3.319 0.545-4.726 1.465-2.993 1.686-3.513 5.577-3.293 7.987-5.549-0.468-10.668-3.175-14.178-7.499-0.144-0.221-0.383-0.361-0.646-0.378-0.263 0.018-0.499 0.165-0.63 0.394-1.623 2.81-1.488 6.303 0.347 8.98-0.236-0.158-0.488-0.347-0.74-0.551-0.235-0.233-0.591-0.294-0.89-0.153s-0.479 0.454-0.449 0.783c0.048 2.932 1.516 5.657 3.938 7.31l-0.614-0.173c-0.292-0.091-0.611-0.004-0.817 0.222s-0.262 0.551-0.144 0.834c1.236 2.793 3.658 4.885 6.601 5.703-2.683 1.55-5.79 2.201-8.869 1.859-0.372-0.046-0.725 0.177-0.844 0.533s0.030 0.746 0.355 0.932c3.704 2.161 7.921 3.287 12.209 3.261 6.057-0.049 11.798-2.708 15.754-7.294 3.941-4.224 6.014-9.857 5.75-15.628 1.404-1.073 2.613-2.378 3.576-3.86 0.164-0.286 0.133-0.645-0.079-0.898z"></path>
</symbol>
<symbol id="icon-Vector-2" viewBox="0 0 18 32">
<path fill="#fff" style="fill: var(--color1, #fff)" d="M10.787 32v-14.597h4.899l0.734-5.689h-5.633v-3.632c0-1.647 0.457-2.769 2.819-2.769l3.012-0.001v-5.088c-0.521-0.069-2.309-0.224-4.389-0.224-4.343 0-7.316 2.651-7.316 7.519v4.195h-4.912v5.689h4.912v14.597h5.875z"></path>
</symbol>
<symbol id="icon-Vector" viewBox="0 0 32 32">
<path fill="#fff" style="fill: var(--color1, #fff)" d="M24 0h-16c-4.4 0-8 3.599-8 8v16c0 4.4 3.6 8 8 8h16c4.4 0 8-3.6 8-8v-16c0-4.401-3.6-8-8-8zM15.999 22.667c-3.682 0-6.667-2.986-6.667-6.666 0-3.682 2.984-6.667 6.667-6.667 3.681 0 6.667 2.984 6.667 6.667 0 3.681-2.986 6.666-6.667 6.666zM22.667 7.334c0 1.104 0.894 2 2 2s2-0.896 2-2c0-1.104-0.894-2-2-2s-2 0.896-2 2z"></path>
</symbol>
<symbol id="icon-menu" viewBox="0 0 44 32">
<path d="M0 6h28v6h-28v-6zM0 14h28v6h-28v-6zM0 22h28v6h-28v-6z"></path>
<path d="M31 14l6 6 6-6z"></path>
</symbol>
<symbol id="icon-close" viewBox="0 0 32 32">
<path d="M31.708 25.708c-0-0-0-0-0-0l-9.708-9.708 9.708-9.708c0-0 0-0 0-0 0.105-0.105 0.18-0.227 0.229-0.357 0.133-0.356 0.057-0.771-0.229-1.057l-4.586-4.586c-0.286-0.286-0.702-0.361-1.057-0.229-0.13 0.048-0.252 0.124-0.357 0.228 0 0-0 0-0 0l-9.708 9.708-9.708-9.708c-0-0-0-0-0-0-0.105-0.104-0.227-0.18-0.357-0.228-0.356-0.133-0.771-0.057-1.057 0.229l-4.586 4.586c-0.286 0.286-0.361 0.702-0.229 1.057 0.049 0.13 0.124 0.252 0.229 0.357 0 0 0 0 0 0l9.708 9.708-9.708 9.708c-0 0-0 0-0 0-0.104 0.105-0.18 0.227-0.229 0.357-0.133 0.355-0.057 0.771 0.229 1.057l4.586 4.586c0.286 0.286 0.702 0.361 1.057 0.229 0.13-0.049 0.252-0.124 0.357-0.229 0-0 0-0 0-0l9.708-9.708 9.708 9.708c0 0 0 0 0 0 0.105 0.105 0.227 0.18 0.357 0.229 0.356 0.133 0.771 0.057 1.057-0.229l4.586-4.586c0.286-0.286 0.362-0.702 0.229-1.057-0.049-0.13-0.124-0.252-0.229-0.357z"></path>
</symbol>
</defs>
</svg>
